<?xml version="1.0" encoding="utf-8"?>
<!-- Generator: Adobe Illustrator 21.0.0, SVG Export Plug-In . SVG Version: 6.00 Build 0)  -->
<svg version="1.1" id="Layer_1" xmlns="http://www.w3.org/2000/svg" xmlns:xlink="http://www.w3.org/1999/xlink" x="0px" y="0px"
	 viewBox="0 0 16 16" style="enable-background:new 0 0 16 16;" xml:space="preserve">
<g>
	<path d="M3.3,11.7L0.5,5.4h1.6l1.5,3.8l1.6-3.8h1.5l-2.9,6.3H3.3z"/>
	<path d="M7.6,6.6H6.8l0.5-1.2l1.7,0v6.2H7.6V6.6z M8.9,3.3C9,3.5,9.1,3.7,9.1,3.9c0,0.2-0.1,0.4-0.2,0.6S8.5,4.7,8.3,4.7
		c-0.2,0-0.4-0.1-0.6-0.2C7.5,4.3,7.5,4.1,7.5,3.9c0-0.2,0.1-0.4,0.2-0.6c0.2-0.2,0.4-0.2,0.6-0.2C8.5,3.1,8.7,3.1,8.9,3.3z"/>
	<path d="M12.7,11.5c-0.3,0.1-0.7,0.2-1,0.2c-0.7,0-1.2-0.2-1.6-0.5c-0.4-0.3-0.6-0.8-0.6-1.4c0-0.7,0.3-1.3,0.8-1.7
		c0.5-0.4,1.3-0.6,2.3-0.6c0.2,0,0.4,0,0.6,0.1c0-0.7-0.5-1.1-1.4-1.1c-0.5,0-1,0.1-1.4,0.3l-0.3-1.1c0.5-0.2,1.1-0.4,1.8-0.4
		c0.9,0,1.6,0.2,2.1,0.6c0.4,0.4,0.7,1.2,0.7,2.4v1.3c0,0.8,0.2,1.3,0.5,1.5c-0.1,0.2-0.3,0.3-0.4,0.4c-0.1,0-0.3,0.1-0.5,0.1
		c-0.2,0-0.4-0.1-0.6-0.2s-0.3-0.3-0.3-0.5C13.3,11.2,13.1,11.4,12.7,11.5z M12.7,8.6C11.6,8.6,11,9,11,9.7c0,0.6,0.3,0.8,1,0.8
		c0.9,0,1.3-0.4,1.3-1.3V8.7C13,8.7,12.8,8.6,12.7,8.6z"/>
</g>
<g>
</g>
<g>
</g>
<g>
</g>
<g>
</g>
<g>
</g>
<g>
</g>
</svg>
