<?xml version="1.0" encoding="UTF-8" standalone="no"?>
<svg
   xmlns:dc="http://purl.org/dc/elements/1.1/"
   xmlns:cc="http://creativecommons.org/ns#"
   xmlns:rdf="http://www.w3.org/1999/02/22-rdf-syntax-ns#"
   xmlns:svg="http://www.w3.org/2000/svg"
   xmlns="http://www.w3.org/2000/svg"
   viewBox="0 0 75.58667 103.44"
   height="103.44"
   width="75.58667"
   xml:space="preserve"
   id="svg2"
   version="1.1"><metadata
     id="metadata8"><rdf:RDF><cc:Work
         rdf:about=""><dc:format>image/svg+xml</dc:format><dc:type
           rdf:resource="http://purl.org/dc/dcmitype/StillImage" /></cc:Work></rdf:RDF></metadata><defs
     id="defs6" /><g
     transform="matrix(1.3333333,0,0,-1.3333333,0,103.44)"
     id="g10"><g
       transform="scale(0.1)"
       id="g12"><path
         id="path14"
         style="fill:#ffffff;fill-opacity:1;fill-rule:nonzero;stroke:none"
         d="M 566.93,208.848 H 0 V 775.781 H 566.93 V 208.848" /><path
         id="path16"
         style="fill:#040606;fill-opacity:1;fill-rule:nonzero;stroke:none"
         d="m 240.66,614.344 42.813,42.812 42.82,-42.812 23.68,23.687 -42.801,42.828 42.801,42.797 -23.68,23.703 -42.82,-42.808 -42.813,42.808 -23.695,-23.703 42.82,-42.797 -42.82,-42.828 23.695,-23.687" /><path
         id="path18"
         style="fill:#040606;fill-opacity:1;fill-rule:nonzero;stroke:none"
         d="m 240.66,456.785 42.813,42.813 42.82,-42.813 23.68,23.684 -42.801,42.832 42.801,42.797 -23.68,23.703 -42.82,-42.809 -42.813,42.809 -23.695,-23.703 42.82,-42.797 -42.82,-42.832 23.695,-23.684" /><path
         id="path20"
         style="fill:#040606;fill-opacity:1;fill-rule:nonzero;stroke:none"
         d="m 240.66,237.5 42.813,42.813 42.82,-42.813 23.68,23.691 -42.801,42.821 42.801,42.804 -23.68,23.692 -42.82,-42.805 -42.813,42.805 -23.695,-23.692 42.82,-42.804 -42.82,-42.821 23.695,-23.691" /><path
         id="path22"
         style="fill:#040606;fill-opacity:1;fill-rule:nonzero;stroke:none"
         d="m 412.328,614.969 -49.258,-2.266 c 0,0 7.032,-52.012 4.055,-104.551 -2.863,-50.164 -10.77,-58.98 -10.77,-58.98 -11.128,-20.891 -45.585,-25.981 -63.203,-27.336 -17.672,-1.387 -25.562,-0.43 -25.562,-0.43 0,0 -50.836,1.953 -62.238,25.625 -6.497,13.485 -7.868,39.961 -7.868,39.961 0,0 -0.3,124.059 -0.75,126.86 -0.285,1.5 -10.285,-1.094 -21.867,-1.024 -9.429,0.027 -23.226,0.645 -23.226,0.645 l 4.086,-91.133 -0.551,-53.863 c 0,0 0,-28.899 7.414,-40.422 12.508,-19.559 26.433,-26.551 34.34,-30.254 7.89,-3.75 20.433,-7.481 34.371,-10.262 13.926,-2.812 37.179,-4.238 67.816,3.613 30.656,7.899 44.211,21.797 44.211,21.797 l 23.235,21.836 -0.071,-51.609 48.801,14.363 c 0,0 -6.441,40.899 -6.371,110.582 0.07,69.707 3.406,106.848 3.406,106.848" /><path
         id="path24"
         style="fill:#ffffff;fill-opacity:1;fill-rule:nonzero;stroke:none"
         d="m 122.969,116.434 c 0,15.129 -8.614,15.129 -18.481,15.129 l -0.898,0.773 v 3.25 c 0,2.109 1.254,2.297 3.23,2.297 4.664,0 16.149,-0.957 24.582,-0.957 8.973,0 18.125,0.957 27.098,0.957 l 0.539,-0.578 v -4.969 l -0.898,-0.773 h -2.157 c -11.664,0 -16.867,-1.34 -16.867,-15.704 V 60.3203 c 0,-27.5664 5.028,-49.207 35.887,-49.207 32.125,0 42.531,16.4648 42.531,48.8281 v 49.7926 c 0,21.829 0,20.293 -15.793,21.829 l -0.719,1.531 v 3.644 l 0.543,1.145 c 3.231,0 6.817,-0.957 20.274,-0.957 7.539,0 17.051,0.957 22.793,0.957 l 0.715,-1.145 v -4.023 l -1.075,-1.152 c -13.101,0 -17.765,-0.762 -17.765,-10.344 V 52.8594 C 226.508,17.8125 207.309,0 174.648,0 148.629,0 122.969,9.77344 122.969,41.75 v 74.684" /><path
         id="path26"
         style="fill:#ffffff;fill-opacity:1;fill-rule:nonzero;stroke:none"
         d="M 286.672,0.574219 C 286.488,0 285.77,0 285.234,0 c -1.078,0 -2.152,1.92578 -3.05,4.21875 -0.719,1.91406 -0.899,3.82813 -1.797,5.93755 -8.789,22.0195 -19.739,47.6757 -26.555,66.2617 -1.258,3.4453 -8.258,4.0117 -11.129,4.0117 -0.715,0 -1.078,1.5351 -1.078,3.0664 0,1.1523 0.543,2.2969 1.078,2.2969 3.231,0 10.949,-0.9571 18.844,-0.9571 6.098,0 15.969,0.9571 18.48,0.9571 0.719,0 1.082,-0.3828 1.082,-2.1016 v -1.9141 c 0,-0.5781 -0.363,-1.3476 -0.898,-1.3476 l -5.566,-0.3789 c -2.692,-0.1875 -5.02,-0.7656 -5.02,-3.0703 0,-1.5196 1.074,-5.5469 2.328,-8.9922 5.387,-14.5625 11.664,-29.1094 17.406,-43.6641 h 0.364 c 2.507,8.8125 17.582,42.8946 17.582,49.6016 0,5.3594 -3.051,6.5039 -8.075,6.5039 h -2.691 c -0.719,0 -1.074,0.1953 -1.074,1.9141 v 1.7265 c 0,0.7656 0.355,1.7227 0.89,1.7227 1.438,0 8.079,-0.9571 17.047,-0.9571 1.797,0 9.157,0.9571 14,0.9571 0.356,0 0.719,-0.1875 0.719,-1.3399 v -2.4883 c 0,-1.1445 -0.363,-1.5351 -1.258,-1.5351 -8.609,0 -10.59,-4.2109 -13.996,-12.8242 L 286.672,0.574219" /><path
         id="path28"
         style="fill:#ffffff;fill-opacity:1;fill-rule:nonzero;stroke:none"
         d="m 404.77,63.7695 -19.915,54.7775 h -0.363 L 367.445,63.7695 Z m -39.657,-7.4609 -7.894,-27.1992 c -1.438,-4.9766 -2.156,-9.3828 -2.156,-12.4492 0,-6.3164 8.437,-7.65629 13.281,-7.65629 1.613,0 1.972,-1.15235 1.972,-3.64453 0,-1.91407 -0.179,-2.67579 -1.433,-2.67579 -4.125,0 -17.227,0.95704 -22.07,0.95704 -4.844,0 -12.383,-0.95704 -17.766,-0.95704 -3.594,0 -3.594,0.57813 -3.594,3.07032 v 2.09765 c 0,0.95703 1.617,1.34766 5.926,1.72657 9.328,0.95707 10.59,2.87107 13.996,13.41017 l 35.527,110.3047 c 3.59,3.25 7.36,7.652 11.848,9.187 L 437.789,21.2617 c 3.051,-8.0469 6.277,-12.06248 16.688,-12.06248 1.972,0 2.336,-2.30469 2.336,-4.40234 0,-2.11329 -1.262,-2.11329 -3.415,-2.11329 -2.871,0 -14.355,0.95704 -21.351,0.95704 -7.18,0 -14.356,-0.37891 -21.535,-0.95704 -2.692,0 -2.871,0.57813 -2.871,3.25391 0,2.10938 1.074,3.06641 3.589,3.06641 2.692,0 11.485,0.57422 11.485,5.17579 0,1.5234 -0.719,4.5898 -3.227,11.2891 l -11.484,30.8398 h -42.891" /></g></g></svg>